<svg xmlns="http://www.w3.org/2000/svg" viewBox="0 0 64 64" role="img" aria-labelledby="title desc">
  <title id="title">Studio agent origami companion</title>
  <desc id="desc">A rose folded paper companion carrying a compact palette mark.</desc>
  <path d="M15 9 43 5l10 13-3 33-16 8-24-8 2-34Z" fill="#D85C86"/>
  <path d="m15 9 7 10-4 29-8 3 2-34Z" fill="#F2A0BB"/>
  <path d="m43 5-6 15 16-2Z" fill="#E77DA0"/>
  <path d="m10 51 25-10 15 10-16 8Z" fill="#A83E64"/>
  <circle cx="25" cy="24" r="2.6" fill="#172033"/>
  <circle cx="37" cy="22.5" r="2.6" fill="#172033"/>
  <rect x="19" y="32" width="26" height="19" rx="4" fill="#172033"/>
  <path d="M32 36.5c-4.8 0-8.5 2.4-8.5 5.7 0 3.2 3.2 5.3 7.3 5.3h1.8c1.2 0 1.8-.7 1.2-1.7-.8-1.5.2-2.7 2-2.7h1.8c2 0 3-1.1 3-2.6 0-2.3-3.7-4-8.6-4Z" fill="#fff"/>
  <circle cx="28" cy="40.5" r="1.2" fill="#D85C86"/>
  <circle cx="32" cy="39" r="1.2" fill="#5968D9"/>
  <circle cx="35.7" cy="40.5" r="1.2" fill="#169C91"/>
  <path d="m38.5 10.5 4.5-5.5 4.5 8Z" fill="#FFD0DF"/>
</svg>
