<svg xmlns="http://www.w3.org/2000/svg" viewBox="0 0 64 64" role="img" aria-labelledby="title desc">
  <title id="title">Research agent origami companion</title>
  <desc id="desc">A teal folded paper companion leaning forward and holding a magnifying lens.</desc>
  <path d="m12 15 27-6 9 12-3 25-22 6-14-14Z" fill="#169C91"/>
  <path d="m12 15 9 10 2 27L9 38Z" fill="#65D0C4"/>
  <path d="m39 9-4 15 13-3Z" fill="#35B8AD"/>
  <path d="m43 31 9-4 5 6-10 6Z" fill="#35B8AD"/>
  <circle cx="54" cy="35" r="7" fill="#172033"/>
  <circle cx="54" cy="35" r="3.8" fill="#fff"/>
  <path d="m58.5 40 4 5" fill="none" stroke="#172033" stroke-linecap="round" stroke-width="4"/>
  <path d="m22 49 11-1-7 11H11Z" fill="#0D746E"/>
  <path d="m33 48 12-4 9 13-17 2Z" fill="#11857C"/>
  <circle cx="25" cy="27" r="2.5" fill="#172033"/>
  <circle cx="36" cy="24.5" r="2.5" fill="#172033"/>
  <path d="m21 25 14-16v15Z" fill="#91E1D7" opacity=".45"/>
</svg>
